<svg xmlns="http://www.w3.org/2000/svg" viewBox="0 0 512 512" width="512" height="512">
  <!-- full-bleed sky background so the icon looks good when a launcher masks it to a circle/squircle -->
  <defs>
    <linearGradient id="sky" x1="0" y1="0" x2="0" y2="1">
      <stop offset="0%" stop-color="#CFF0FF"/>
      <stop offset="100%" stop-color="#86C8F2"/>
    </linearGradient>
  </defs>
  <rect width="512" height="512" fill="url(#sky)"/>
  <!-- soft ground shadow under the tower -->
  <ellipse cx="256" cy="404" rx="132" ry="26" fill="#000000" opacity="0.10"/>
  <!-- bold stacked blocks, kept inside the ~80% maskable safe area (scale 6.8) -->
  <g transform="translate(256 256) scale(6.8) translate(-30.5 -32)">
    <polygon points="21,11 34,18 34,32 21,25" fill="#D9762E"/>
    <polygon points="47,11 34,18 34,32 47,25" fill="#F59A4E"/>
    <polygon points="34,4 47,11 34,18 21,11" fill="#FFC089"/>
    <polygon points="14,25 27,32 27,46 14,39" fill="#E0A21E"/>
    <polygon points="40,25 27,32 27,46 40,39" fill="#F5C842"/>
    <polygon points="27,18 40,25 27,32 14,25" fill="#FFE08A"/>
    <polygon points="20,39 33,46 33,60 20,53" fill="#2E8B4A"/>
    <polygon points="46,39 33,46 33,60 46,53" fill="#55BC70"/>
    <polygon points="33,32 46,39 33,46 20,39" fill="#86D79A"/>
  </g>
</svg>
