<svg xmlns="http://www.w3.org/2000/svg" viewBox="0 0 512 512" width="512" height="512">
  <!-- full-bleed background so the icon looks good when a launcher masks it to a circle/squircle -->
  <rect width="512" height="512" fill="#EAF8E3"/>
  <!-- stacked blocks logo, kept inside the ~80% maskable safe area -->
  <g transform="translate(256 264) scale(5.6) translate(-30.5 -32)">
    <polygon points="21,11 34,18 34,32 21,25" fill="#D9762E"/>
    <polygon points="47,11 34,18 34,32 47,25" fill="#F59A4E"/>
    <polygon points="34,4 47,11 34,18 21,11" fill="#FFC089"/>
    <polygon points="14,25 27,32 27,46 14,39" fill="#E0A21E"/>
    <polygon points="40,25 27,32 27,46 40,39" fill="#F5C842"/>
    <polygon points="27,18 40,25 27,32 14,25" fill="#FFE08A"/>
    <polygon points="20,39 33,46 33,60 20,53" fill="#2E8B4A"/>
    <polygon points="46,39 33,46 33,60 46,53" fill="#55BC70"/>
    <polygon points="33,32 46,39 33,46 20,39" fill="#86D79A"/>
  </g>
</svg>
